<svg xmlns="http://www.w3.org/2000/svg" version="1.1" viewBox="-5.0 -10.0 110.0 135.0">
 <path d="m89.02 32.25h-14.23c-0.53906 0-0.98047 0.44141-0.98047 0.98047 0 0.53906 0.44141 0.98047 0.98047 0.98047h6.1484v2.1211h-1.6406c-1.7695 0-3.2109 1.3398-3.4102 3.0508l-9.8867-0.003906c-0.87109-3.2188-3.8086-5.5898-7.3008-5.5898h-17.398c-3.4883 0-6.4297 2.3789-7.3008 5.5898h-9.8906c-0.19922-1.7109-1.6406-3.0508-3.4102-3.0508h-1.6406v-2.1289h6.1484c0.53906 0 0.98047-0.44141 0.98047-0.98047s-0.44141-0.98047-0.98047-0.98047h-14.227c-0.53906 0-0.98047 0.44141-0.98047 0.98047s0.44141 0.98047 0.98047 0.98047h6.1406v2.1211h-1.6289c-1.8984 0-3.4492 1.5508-3.4492 3.4492v10.309c0 1.8984 1.5508 3.4492 3.4492 3.4492h5.2188c0.94922 0 1.8203-0.39062 2.4414-1.0195l10.648 0.003907c0.16016 1.2695 0.64062 2.4414 1.3516 3.4414l-7.0117 9.8711h-4.0703c-0.53906 0-0.98047 0.44141-0.98047 0.98047 0 0.53906 0.44141 0.98047 0.98047 0.98047h9.1484c0.53906 0 0.98047-0.44141 0.98047-0.98047 0-0.53906-0.44141-0.98047-0.98047-0.98047h-2.6914l5.9688-8.4102c1.3086 1.0703 2.9688 1.7188 4.7891 1.7188h2.8398c0.66016 2.6602 3.0312 4.5781 5.8516 4.5781 2.8203 0 5.1914-1.9219 5.8516-4.5781h2.8398c1.8203 0 3.4883-0.64062 4.7891-1.7188l5.9688 8.4102h-2.6914c-0.53906 0-0.98047 0.44141-0.98047 0.98047 0 0.53906 0.44141 0.98047 0.98047 0.98047h9.1484c0.53906 0 0.98047-0.44141 0.98047-0.98047 0-0.53906-0.44141-0.98047-0.98047-0.98047h-4.0703l-7.0117-9.8711c0.71094-0.98828 1.1914-2.1719 1.3516-3.4414h10.648c0.62891 0.62891 1.4883 1.0195 2.4414 1.0195h5.2188c1.8984 0 3.4492-1.5508 3.4492-3.4492l0.011719-10.32c0-1.8984-1.5508-3.4492-3.4492-3.4492h-1.6289l-0.003906-2.1133h6.1406c0.53906 0 0.98047-0.44141 0.98047-0.98047 0.039062-0.53906-0.40234-0.96875-0.94141-0.96875zm-66.82 17.82c0 0.82813-0.67188 1.5-1.5 1.5h-5.2188c-0.82812 0-1.5-0.67187-1.5-1.5v-10.309c0-0.82812 0.67188-1.5 1.5-1.5h5.2188c0.82812 0 1.5 0.67188 1.5 1.5zm1.9492 0v-8.75h9.5781v0.03125 9.2109h-9.6289c0.03125-0.17188 0.050782-0.33203 0.050782-0.49219zm25.852 11.668c-1.7383 0-3.2188-1.0781-3.8086-2.6211h7.6289c-0.60156 1.543-2.082 2.6211-3.8203 2.6211zm-8.6992-4.5781c-1.5391 0-2.9414-0.62109-3.9492-1.6289-0.058593-0.19922-0.17187-0.37891-0.35156-0.51172-0.050781-0.03125-0.10156-0.039062-0.14844-0.070312-0.73047-0.94922-1.1719-2.1289-1.1719-3.4102v-10.199c0-3.1016 2.5195-5.6211 5.6211-5.6211h17.398c3.1016 0 5.6211 2.5195 5.6211 5.6211v10.199c0 1.2812-0.44141 2.4688-1.1719 3.4102-0.050782 0.019531-0.10156 0.03125-0.14844 0.070312-0.17969 0.12891-0.28906 0.30859-0.35156 0.51172-1.0195 1.0117-2.4102 1.6289-3.9492 1.6289zm24.969-6.6094v-9.2109-0.03125h9.5781v8.75c0 0.16016 0.03125 0.32031 0.050782 0.48047h-9.6289zm19.75-10.789v10.309c0 0.82813-0.67188 1.5-1.5 1.5h-5.2188c-0.82812 0-1.5-0.67187-1.5-1.5v-10.309c0-0.82812 0.67188-1.5 1.5-1.5h5.2188c0.82031 0 1.5 0.67969 1.5 1.5z"/>
<text x="0.0" y="117.5" font-size="5.0" font-weight="bold" font-family="Arbeit Regular, Helvetica, Arial-Unicode, Arial, Sans-serif" fill="#000000">Created by Mu'as</text><text x="0.0" y="122.5" font-size="5.0" font-weight="bold" font-family="Arbeit Regular, Helvetica, Arial-Unicode, Arial, Sans-serif" fill="#000000">from Noun Project</text></svg>